{
    "asset" : {
        "generator" : "Khronos glTF Blender I/O v1.3.48",
        "version" : "2.0"
    },
    "scene" : 0,
    "scenes" : [
        {
            "name" : "Scene",
            "nodes" : [
                0,
                1
            ]
        }
    ],
    "nodes" : [
        {
            "mesh" : 0,
            "name" : "Cylinder.002",
            "rotation" : [
                0,
                0,
                -0.15537893772125244,
                0.9878549575805664
            ],
            "scale" : [
                0.07431402802467346,
                -0.3817051649093628,
                0.07495854049921036
            ],
            "translation" : [
                0.24879565834999084,
                3.3652031421661377,
                0.3244903087615967
            ]
        },
        {
            "mesh" : 1,
            "name" : "Sphere.001",
            "scale" : [
                0.850011944770813,
                1,
                1
            ],
            "translation" : [
                0.017763756215572357,
                1.1441373825073242,
                0.3244899809360504
            ]
        }
    ],
    "materials" : [
        {
            "doubleSided" : true,
            "emissiveFactor" : [
                0,
                0,
                0
            ],
            "name" : "Stem Pear",
            "pbrMetallicRoughness" : {
                "baseColorFactor" : [
                    0.22323042154312134,
                    0.10218045860528946,
                    0.007548452354967594,
                    1
                ],
                "metallicFactor" : 0,
                "roughnessFactor" : 0.5
            }
        },
        {
            "doubleSided" : true,
            "emissiveFactor" : [
                0,
                0,
                0
            ],
            "name" : "Pear",
            "pbrMetallicRoughness" : {
                "baseColorFactor" : [
                    0.7529424428939819,
                    0.48208746314048767,
                    0.11492186784744263,
                    1
                ],
                "metallicFactor" : 0,
                "roughnessFactor" : 0.5
            }
        }
    ],
    "meshes" : [
        {
            "name" : "Cylinder",
            "primitives" : [
                {
                    "attributes" : {
                        "POSITION" : 0,
                        "NORMAL" : 1,
                        "TEXCOORD_0" : 2
                    },
                    "indices" : 3,
                    "material" : 0
                }
            ]
        },
        {
            "name" : "Sphere.002",
            "primitives" : [
                {
                    "attributes" : {
                        "POSITION" : 4,
                        "NORMAL" : 5,
                        "TEXCOORD_0" : 6
                    },
                    "indices" : 7,
                    "material" : 1
                }
            ]
        }
    ],
    "accessors" : [
        {
            "bufferView" : 0,
            "componentType" : 5126,
            "count" : 144,
            "max" : [
                0.7867680191993713,
                1.014521837234497,
                0.9608892798423767
            ],
            "min" : [
                -1.7538138628005981,
                -0.8547413349151611,
                -0.9608891010284424
            ],
            "type" : "VEC3"
        },
        {
            "bufferView" : 1,
            "componentType" : 5126,
            "count" : 144,
            "type" : "VEC3"
        },
        {
            "bufferView" : 2,
            "componentType" : 5126,
            "count" : 144,
            "type" : "VEC2"
        },
        {
            "bufferView" : 3,
            "componentType" : 5123,
            "count" : 228,
            "type" : "SCALAR"
        },
        {
            "bufferView" : 4,
            "componentType" : 5126,
            "count" : 321,
            "max" : [
                1.2804337739944458,
                1.951798439025879,
                1.0000001192092896
            ],
            "min" : [
                -1.2585570812225342,
                -1.1256240606307983,
                -1
            ],
            "type" : "VEC3"
        },
        {
            "bufferView" : 5,
            "componentType" : 5126,
            "count" : 321,
            "type" : "VEC3"
        },
        {
            "bufferView" : 6,
            "componentType" : 5126,
            "count" : 321,
            "type" : "VEC2"
        },
        {
            "bufferView" : 7,
            "componentType" : 5123,
            "count" : 1632,
            "type" : "SCALAR"
        }
    ],
    "bufferViews" : [
        {
            "buffer" : 0,
            "byteLength" : 1728,
            "byteOffset" : 0
        },
        {
            "buffer" : 0,
            "byteLength" : 1728,
            "byteOffset" : 1728
        },
        {
            "buffer" : 0,
            "byteLength" : 1152,
            "byteOffset" : 3456
        },
        {
            "buffer" : 0,
            "byteLength" : 456,
            "byteOffset" : 4608
        },
        {
            "buffer" : 0,
            "byteLength" : 3852,
            "byteOffset" : 5064
        },
        {
            "buffer" : 0,
            "byteLength" : 3852,
            "byteOffset" : 8916
        },
        {
            "buffer" : 0,
            "byteLength" : 2568,
            "byteOffset" : 12768
        },
        {
            "buffer" : 0,
            "byteLength" : 3264,
            "byteOffset" : 15336
        }
    ],
    "buffers" : [
        {
            "byteLength" : 18600,
            "uri" : "data:application/octet-stream;base64,"
        }
    ]
}
