<svg id="eC3XnA6OUjt1" xmlns="http://www.w3.org/2000/svg" xmlns:xlink="http://www.w3.org/1999/xlink" viewBox="0 0 2400 761" shape-rendering="geometricPrecision" text-rendering="geometricPrecision"><style><![CDATA[#eC3XnA6OUjt5_ts {animation: eC3XnA6OUjt5_ts__ts 6500ms linear 1 normal forwards}@keyframes eC3XnA6OUjt5_ts__ts { 0% {transform: translate(2508.140137px,3923.5px) scale(0,0)} 38.461538% {transform: translate(2508.140137px,3923.5px) scale(0,0);animation-timing-function: cubic-bezier(0.42,0,0.58,1)} 44.615385% {transform: translate(2508.140137px,3923.5px) scale(1,1)} 100% {transform: translate(2508.140137px,3923.5px) scale(1,1)}} #eC3XnA6OUjt7_ts {animation: eC3XnA6OUjt7_ts__ts 6500ms linear 1 normal forwards}@keyframes eC3XnA6OUjt7_ts__ts { 0% {transform: translate(2508.140137px,3923.5px) scale(0,0)} 64.615385% {transform: translate(2508.140137px,3923.5px) scale(0,0);animation-timing-function: cubic-bezier(0.42,0,0.58,1)} 70.769231% {transform: translate(2508.140137px,3923.5px) scale(1,1)} 100% {transform: translate(2508.140137px,3923.5px) scale(1,1)}} #eC3XnA6OUjt20_ts {animation: eC3XnA6OUjt20_ts__ts 6500ms linear 1 normal forwards}@keyframes eC3XnA6OUjt20_ts__ts { 0% {transform: translate(2508.140137px,3923.5px) scale(0,0)} 13.846154% {transform: translate(2508.140137px,3923.5px) scale(0,0);animation-timing-function: cubic-bezier(0.42,0,0.58,1)} 20% {transform: translate(2508.140137px,3923.5px) scale(1,1)} 100% {transform: translate(2508.140137px,3923.5px) scale(1,1)}} #eC3XnA6OUjt22_ts {animation: eC3XnA6OUjt22_ts__ts 6500ms linear 1 normal forwards}@keyframes eC3XnA6OUjt22_ts__ts { 0% {transform: translate(2508.140137px,3923.5px) scale(0,0)} 26.153846% {transform: translate(2508.140137px,3923.5px) scale(0,0);animation-timing-function: cubic-bezier(0.42,0,0.58,1)} 32.307692% {transform: translate(2508.140137px,3923.5px) scale(1,1)} 100% {transform: translate(2508.140137px,3923.5px) scale(1,1)}} #eC3XnA6OUjt24_ts {animation: eC3XnA6OUjt24_ts__ts 6500ms linear 1 normal forwards}@keyframes eC3XnA6OUjt24_ts__ts { 0% {transform: translate(2508.140137px,3923.5px) scale(0,0)} 47.692308% {transform: translate(2508.140137px,3923.5px) scale(0,0);animation-timing-function: cubic-bezier(0.42,0,0.58,1)} 53.846154% {transform: translate(2508.140137px,3923.5px) scale(1,1)} 100% {transform: translate(2508.140137px,3923.5px) scale(1,1)}} #eC3XnA6OUjt26_ts {animation: eC3XnA6OUjt26_ts__ts 6500ms linear 1 normal forwards}@keyframes eC3XnA6OUjt26_ts__ts { 0% {transform: translate(2508.140137px,3923.5px) scale(0,0)} 35.384615% {transform: translate(2508.140137px,3923.5px) scale(0,0);animation-timing-function: cubic-bezier(0.42,0,0.58,1)} 41.538462% {transform: translate(2508.140137px,3923.5px) scale(1,1)} 100% {transform: translate(2508.140137px,3923.5px) scale(1,1)}} #eC3XnA6OUjt28_ts {animation: eC3XnA6OUjt28_ts__ts 6500ms linear 1 normal forwards}@keyframes eC3XnA6OUjt28_ts__ts { 0% {transform: translate(2508.140137px,3923.5px) scale(0,0)} 90.769231% {transform: translate(2508.140137px,3923.5px) scale(0,0);animation-timing-function: cubic-bezier(0.42,0,0.58,1)} 96.923077% {transform: translate(2508.140137px,3923.5px) scale(1,1)} 100% {transform: translate(2508.140137px,3923.5px) scale(1,1)}} #eC3XnA6OUjt30_ts {animation: eC3XnA6OUjt30_ts__ts 6500ms linear 1 normal forwards}@keyframes eC3XnA6OUjt30_ts__ts { 0% {transform: translate(2508.140137px,3923.5px) scale(0,0)} 83.076923% {transform: translate(2508.140137px,3923.5px) scale(0,0);animation-timing-function: cubic-bezier(0.42,0,0.58,1)} 89.230769% {transform: translate(2508.140137px,3923.5px) scale(1,1)} 100% {transform: translate(2508.140137px,3923.5px) scale(1,1)}} #eC3XnA6OUjt32_ts {animation: eC3XnA6OUjt32_ts__ts 6500ms linear 1 normal forwards}@keyframes eC3XnA6OUjt32_ts__ts { 0% {transform: translate(2508.140137px,3923.5px) scale(0,0)} 7.692308% {transform: translate(2508.140137px,3923.5px) scale(0,0)} 13.846154% {transform: translate(2508.140137px,3923.5px) scale(1,1)} 100% {transform: translate(2508.140137px,3923.5px) scale(1,1)}} #eC3XnA6OUjt34_ts {animation: eC3XnA6OUjt34_ts__ts 6500ms linear 1 normal forwards}@keyframes eC3XnA6OUjt34_ts__ts { 0% {transform: translate(2508.140137px,3923.5px) scale(0,0)} 58.461538% {transform: translate(2508.140137px,3923.5px) scale(0,0);animation-timing-function: cubic-bezier(0.42,0,0.58,1)} 64.615385% {transform: translate(2508.140137px,3923.5px) scale(1,1)} 100% {transform: translate(2508.140137px,3923.5px) scale(1,1)}} #eC3XnA6OUjt36_ts {animation: eC3XnA6OUjt36_ts__ts 6500ms linear 1 normal forwards}@keyframes eC3XnA6OUjt36_ts__ts { 0% {transform: translate(2508.140137px,3923.5px) scale(0,0)} 50.769231% {transform: translate(2508.140137px,3923.5px) scale(0,0);animation-timing-function: cubic-bezier(0.42,0,0.58,1)} 56.923077% {transform: translate(2508.140137px,3923.5px) scale(1,1)} 100% {transform: translate(2508.140137px,3923.5px) scale(1,1)}} #eC3XnA6OUjt38_ts {animation: eC3XnA6OUjt38_ts__ts 6500ms linear 1 normal forwards}@keyframes eC3XnA6OUjt38_ts__ts { 0% {transform: translate(2508.140137px,3923.5px) scale(0,0)} 75.384615% {transform: translate(2508.140137px,3923.5px) scale(0,0);animation-timing-function: cubic-bezier(0.42,0,0.58,1)} 81.538462% {transform: translate(2508.140137px,3923.5px) scale(1,1)} 100% {transform: translate(2508.140137px,3923.5px) scale(1,1)}} #eC3XnA6OUjt40_ts {animation: eC3XnA6OUjt40_ts__ts 6500ms linear 1 normal forwards}@keyframes eC3XnA6OUjt40_ts__ts { 0% {transform: translate(2508.140137px,3923.5px) scale(0,0)} 67.692308% {transform: translate(2508.140137px,3923.5px) scale(0,0);animation-timing-function: cubic-bezier(0.42,0,0.58,1)} 73.846154% {transform: translate(2508.140137px,3923.5px) scale(1,1)} 100% {transform: translate(2508.140137px,3923.5px) scale(1,1)}} #eC3XnA6OUjt42_ts {animation: eC3XnA6OUjt42_ts__ts 6500ms linear 1 normal forwards}@keyframes eC3XnA6OUjt42_ts__ts { 0% {transform: translate(2508.140137px,3923.5px) scale(0,0)} 16.923077% {transform: translate(2508.140137px,3923.5px) scale(0,0);animation-timing-function: cubic-bezier(0.42,0,0.58,1)} 23.076923% {transform: translate(2508.140137px,3923.5px) scale(1,1)} 100% {transform: translate(2508.140137px,3923.5px) scale(1,1)}}]]></style><g id="eC3XnA6OUjt2" transform="matrix(1 0 0 1 -3507.87 -3613.08)" clip-rule="evenodd"><g id="eC3XnA6OUjt3" transform="matrix(1 0 0 1 0 1022)" clip-rule="evenodd"><g id="eC3XnA6OUjt4" transform="matrix(0.472215 0 0 0.472215 4118.88 874.035)" clip-rule="evenodd"><g id="eC3XnA6OUjt5_ts" transform="translate(2508.140137,3923.5) scale(0,0)"><circle id="eC3XnA6OUjt5" r="145.5" transform="translate(-0.000137,0)" clip-rule="evenodd" fill="rgb(187,209,178)" fill-rule="evenodd" stroke="none" stroke-width="1" stroke-linejoin="round" stroke-miterlimit="1.41421"/></g></g><g id="eC3XnA6OUjt6" transform="matrix(0.375901 0 0 0.375901 3291.67 1275.96)" clip-rule="evenodd"><g id="eC3XnA6OUjt7_ts" transform="translate(2508.140137,3923.5) scale(0,0)"><circle id="eC3XnA6OUjt7" r="145.5" transform="translate(-0.000137,0)" clip-rule="evenodd" fill="rgb(187,209,178)" fill-rule="evenodd" stroke="none" stroke-width="1" stroke-linejoin="round" stroke-miterlimit="1.41421"/></g></g><g id="eC3XnA6OUjt8" transform="matrix(1.57243 0 0 1.57243 -3153.89 -3267.39)" clip-rule="evenodd"><g id="eC3XnA6OUjt9" clip-rule="evenodd"><path id="eC3XnA6OUjt10" d="M4236.61,3737.66L4298.91,3737.47L4298.91,4014.42L4236.61,4015.2L4236.61,3737.66Z" clip-rule="evenodd" fill="rgb(164,164,164)" stroke="none" stroke-width="1" stroke-linejoin="round" stroke-miterlimit="1.41421"/><path id="eC3XnA6OUjt11" d="M4378.21,3888.44C4383.03,3880.76,4389.47,3874.64,4397.54,3870.08C4405.62,3865.66,4414.14,3863.44,4423.13,3863.44C4432.37,3863.44,4440.97,3865.66,4448.91,3870.08C4456.98,3874.64,4463.43,3880.76,4468.25,3888.44C4473.06,3896.13,4475.47,3904.53,4475.47,3913.64C4475.47,3927.44,4470.26,3939.36,4459.85,3949.38C4449.56,3959.28,4437.32,3964.22,4423.13,3964.22C4409.07,3964.22,4396.89,3959.28,4386.61,3949.38C4376.19,3939.36,4370.98,3927.44,4370.98,3913.64C4370.98,3904.53,4373.39,3896.13,4378.21,3888.44ZM4475.67,4014.81L4537.58,4015.4L4537.78,3913.64C4537.78,3898.41,4534.72,3884.21,4528.6,3871.06C4522.61,3858.3,4514.14,3846.97,4503.21,3837.08C4492.79,3827.44,4480.55,3820.02,4466.49,3814.81C4452.43,3809.6,4437.97,3807,4423.13,3807C4408.15,3807,4393.7,3809.67,4379.77,3815.01C4365.84,3820.08,4353.6,3827.44,4343.05,3837.08C4332.37,3846.71,4323.98,3858.04,4317.86,3871.06C4311.74,3884.21,4308.68,3898.41,4308.68,3913.64C4308.68,3933.82,4313.95,3952.12,4324.5,3968.52C4334.91,3984.67,4348.98,3997.43,4366.68,4006.8C4384.39,4016.05,4403.21,4020.67,4423.13,4020.67C4438.23,4020.67,4452.69,4018,4466.49,4012.66C4468.44,4012.01,4471.5,4010.78,4475.67,4008.95L4475.67,4014.81Z" clip-rule="evenodd" fill="rgb(164,164,164)" stroke="none" stroke-width="1" stroke-linejoin="round" stroke-miterlimit="1.41421"/><path id="eC3XnA6OUjt12" d="M4637.39,3863.44C4653.27,3864.1,4661.22,3875.16,4661.22,3896.65L4661.22,4014.81L4723.72,4014.81L4723.72,3896.65C4723.72,3839.75,4694.94,3809.86,4637.39,3807L4633.87,3807C4576.32,3809.86,4547.54,3839.75,4547.54,3896.65L4547.54,4014.81L4610.04,4014.81L4610.04,3896.65C4610.04,3875.16,4617.99,3864.1,4633.87,3863.44L4637.39,3863.44Z" clip-rule="evenodd" fill="rgb(164,164,164)" stroke="none" stroke-width="1" stroke-linejoin="round" stroke-miterlimit="1.41421"/><path id="eC3XnA6OUjt13" d="M4900.28,3913.83C4900.28,3904.72,4897.87,3896.39,4893.05,3888.83C4888.23,3881.15,4881.79,3875.03,4873.72,3870.47C4865.77,3865.92,4857.24,3863.64,4848.13,3863.64C4839.01,3863.64,4830.42,3865.92,4822.35,3870.47C4814.28,3875.03,4807.83,3881.15,4803.01,3888.83C4798.19,3896.39,4795.78,3904.72,4795.78,3913.83C4795.78,3927.77,4800.99,3939.75,4811.41,3949.77C4821.7,3959.8,4833.94,3964.81,4848.13,3964.81C4862.19,3964.81,4874.37,3959.8,4884.65,3949.77C4895.07,3939.75,4900.28,3927.77,4900.28,3913.83ZM4962.58,3915.2C4962.45,3934.99,4957.18,3952.9,4946.76,3968.91C4936.35,3985.19,4922.28,3997.95,4904.57,4007.19C4886.87,4016.57,4868.05,4021.26,4848.13,4021.26C4832.89,4021.26,4818.44,4018.59,4804.77,4013.25C4791.23,4008.3,4778.92,4000.81,4767.86,3990.79C4756.92,3980.76,4748.45,3969.3,4742.47,3956.41C4736.48,3943.52,4733.48,3929.33,4733.48,3913.83C4733.48,3898.73,4736.54,3884.6,4742.66,3871.45C4748.65,3858.43,4757.05,3847.04,4767.86,3837.27C4778.79,3827.38,4791.1,3819.89,4804.77,3814.81C4818.83,3809.73,4833.28,3807.19,4848.13,3807.19C4862.84,3807.19,4877.23,3809.73,4891.29,3814.81L4900.28,3818.72L4900.28,3736.3L4962.58,3736.49L4962.58,3915.2Z" clip-rule="evenodd" fill="rgb(164,164,164)" stroke="none" stroke-width="1" stroke-linejoin="round" stroke-miterlimit="1.41421"/></g><g id="eC3XnA6OUjt14" transform="matrix(1 0 0 1 23.045 0)" clip-rule="evenodd"><path id="eC3XnA6OUjt15" d="M4972.35,3737.66L5034.65,3737.47L5034.65,4014.42L4972.35,4015.2L4972.35,3737.66Z" clip-rule="evenodd" fill="rgb(198,198,198)" stroke="none" stroke-width="1" stroke-linejoin="round" stroke-miterlimit="1.41421"/><path id="eC3XnA6OUjt16" d="M5109.07,3815.01L5109.07,4015.2L5046.76,4015.2L5046.76,3815.2L5109.07,3815.01ZM5109.26,3758.37C5109.26,3764.62,5107.83,3770.15,5104.97,3774.97C5102.1,3779.78,5098.19,3783.69,5093.25,3786.69C5088.3,3789.68,5082.83,3791.18,5076.84,3791.18C5070.85,3791.18,5065.45,3789.75,5060.63,3786.88C5055.68,3783.89,5051.78,3779.91,5048.91,3774.97C5045.91,3769.76,5044.42,3764.22,5044.42,3758.37C5044.42,3752.38,5045.85,3746.91,5048.72,3741.96C5051.84,3736.88,5055.81,3732.91,5060.63,3730.05C5065.45,3727.18,5070.85,3725.75,5076.84,3725.75C5082.83,3725.75,5088.3,3727.18,5093.25,3730.05C5098.06,3732.91,5101.97,3736.88,5104.97,3741.96C5107.83,3746.91,5109.26,3752.38,5109.26,3758.37Z" clip-rule="evenodd" fill="rgb(198,198,198)" stroke="none" stroke-width="1" stroke-linejoin="round" stroke-miterlimit="1.41421"/><path id="eC3XnA6OUjt17" d="M5295.98,3891.96L5295.98,4015.01L5233.28,4015.01L5233.28,3891.96C5232.24,3873.6,5224.37,3864.16,5209.65,3863.64L5206.14,3863.64C5190.25,3864.16,5182.31,3875.16,5182.31,3896.65L5182.31,4015.01L5119.81,4015.01L5119.81,3896.65C5119.81,3840.01,5148.59,3810.12,5206.14,3807L5209.65,3807C5232.57,3808.3,5250.93,3813.77,5264.73,3823.41C5278.4,3813.77,5296.7,3808.3,5319.61,3807L5323.13,3807C5380.68,3810.12,5409.46,3840.01,5409.46,3896.65L5409.46,4015.01L5346.96,4015.01L5346.96,3896.65C5346.96,3875.16,5339.01,3864.16,5323.13,3863.64L5319.61,3863.64C5304.9,3864.16,5297.02,3873.6,5295.98,3891.96Z" clip-rule="evenodd" fill="rgb(198,198,198)" stroke="none" stroke-width="1" stroke-linejoin="round" stroke-miterlimit="1.41421"/><path id="eC3XnA6OUjt18" d="M5533.87,4021.26C5513.95,4021.26,5495.13,4016.57,5477.43,4007.19C5459.72,3997.82,5445.65,3984.99,5435.24,3968.72C5424.69,3952.31,5419.42,3933.95,5419.42,3913.64C5419.42,3898.41,5422.48,3884.21,5428.6,3871.06C5434.72,3857.91,5443.12,3846.52,5453.79,3836.88C5464.6,3827.12,5476.9,3819.63,5490.71,3814.42C5504.77,3809.21,5519.16,3806.61,5533.87,3806.61C5548.72,3806.61,5563.17,3809.21,5577.23,3814.42C5590.9,3819.37,5603.21,3826.79,5614.14,3836.69C5624.95,3846.58,5633.35,3858.04,5639.34,3871.06C5645.46,3884.21,5648.52,3898.41,5648.52,3913.64C5648.52,3929.13,5645.53,3943.33,5639.53,3956.22C5633.55,3969.24,5625.08,3980.76,5614.14,3990.79C5603.08,4000.68,5590.77,4008.17,5577.23,4013.25C5563.56,4018.59,5549.11,4021.26,5533.87,4021.26ZM5481.72,3913.64C5481.72,3927.57,5486.93,3939.55,5497.35,3949.58C5507.63,3959.6,5519.81,3964.62,5533.87,3964.62C5548.06,3964.62,5560.3,3959.6,5570.59,3949.58C5581.01,3939.55,5586.22,3927.57,5586.22,3913.64C5586.22,3904.53,5583.81,3896.13,5578.99,3888.44C5574.17,3880.76,5567.73,3874.64,5559.65,3870.08C5551.71,3865.53,5543.12,3863.25,5533.87,3863.25C5524.89,3863.25,5516.36,3865.53,5508.28,3870.08C5500.21,3874.64,5493.77,3880.76,5488.95,3888.44C5484.13,3896.13,5481.72,3904.53,5481.72,3913.64Z" clip-rule="evenodd" fill="rgb(198,198,198)" stroke="none" stroke-width="1" stroke-linejoin="round" stroke-miterlimit="1.41421"/></g></g><g id="eC3XnA6OUjt19" transform="matrix(0.628955 0 0 0.628955 4006.61 419.286)" clip-rule="evenodd"><g id="eC3XnA6OUjt20_ts" transform="translate(2508.140137,3923.5) scale(0,0)"><circle id="eC3XnA6OUjt20" r="145.5" transform="translate(-0.000137,0)" clip-rule="evenodd" fill="rgb(229,173,90)" fill-rule="evenodd" stroke="none" stroke-width="1" stroke-linejoin="round" stroke-miterlimit="1.41421"/></g></g><g id="eC3XnA6OUjt21" transform="matrix(0.663033 0 0 0.663033 2806.32 280.821)" clip-rule="evenodd"><g id="eC3XnA6OUjt22_ts" transform="translate(2508.140137,3923.5) scale(0,0)"><circle id="eC3XnA6OUjt22" r="145.5" transform="translate(-0.000137,0)" clip-rule="evenodd" fill="rgb(180,209,86)" fill-rule="evenodd" stroke="none" stroke-width="1" stroke-linejoin="round" stroke-miterlimit="1.41421"/></g></g><g id="eC3XnA6OUjt23" transform="matrix(0.27928 0 0 0.27928 4984.62 2055.9)" clip-rule="evenodd"><g id="eC3XnA6OUjt24_ts" transform="translate(2508.140137,3923.5) scale(0,0)"><circle id="eC3XnA6OUjt24" r="145.5" transform="translate(-0.000137,0)" clip-rule="evenodd" fill="rgb(255,149,140)" fill-rule="evenodd" stroke="none" stroke-width="1" stroke-linejoin="round" stroke-miterlimit="1.41421"/></g></g><g id="eC3XnA6OUjt25" transform="matrix(0.27928 0 0 0.27928 3282.69 1600.35)" clip-rule="evenodd"><g id="eC3XnA6OUjt26_ts" transform="translate(2508.140137,3923.5) scale(0,0)"><circle id="eC3XnA6OUjt26" r="145.5" transform="translate(-0.000137,0)" clip-rule="evenodd" fill="rgb(229,173,90)" fill-rule="evenodd" stroke="none" stroke-width="1" stroke-linejoin="round" stroke-miterlimit="1.41421"/></g></g><g id="eC3XnA6OUjt27" transform="matrix(0.191861 0 0 0.191861 5307.65 2467.43)" clip-rule="evenodd"><g id="eC3XnA6OUjt28_ts" transform="translate(2508.140137,3923.5) scale(0,0)"><circle id="eC3XnA6OUjt28" r="145.5" transform="translate(-0.000137,0)" clip-rule="evenodd" fill="rgb(249,180,115)" fill-rule="evenodd" stroke="none" stroke-width="1" stroke-linejoin="round" stroke-miterlimit="1.41421"/></g></g><g id="eC3XnA6OUjt29" transform="matrix(0.287792 0 0 0.287792 3927.6 1839.45)" clip-rule="evenodd"><g id="eC3XnA6OUjt30_ts" transform="translate(2508.140137,3923.5) scale(0,0)"><circle id="eC3XnA6OUjt30" r="145.5" transform="translate(-0.000137,0)" clip-rule="evenodd" fill="rgb(238,151,170)" fill-rule="evenodd" stroke="none" stroke-width="1" stroke-linejoin="round" stroke-miterlimit="1.41421"/></g></g><g id="eC3XnA6OUjt31" transform="matrix(0.662731 0 0 0.662731 2139.1 286.61)" clip-rule="evenodd"><g id="eC3XnA6OUjt32_ts" transform="translate(2508.140137,3923.5) scale(0,0)"><circle id="eC3XnA6OUjt32" r="145.5" transform="translate(-0.000137,0)" clip-rule="evenodd" fill="rgb(255,149,140)" fill-rule="evenodd" stroke="none" stroke-width="1" stroke-linejoin="round" stroke-miterlimit="1.41421"/></g></g><g id="eC3XnA6OUjt33" transform="matrix(0.191861 0 0 0.191861 5398.69 2495.35)" clip-rule="evenodd"><g id="eC3XnA6OUjt34_ts" transform="translate(2508.140137,3923.5) scale(0,0)"><circle id="eC3XnA6OUjt34" r="145.5" transform="translate(-0.000137,0)" clip-rule="evenodd" fill="rgb(187,209,178)" fill-rule="evenodd" stroke="none" stroke-width="1" stroke-linejoin="round" stroke-miterlimit="1.41421"/></g></g><g id="eC3XnA6OUjt35" transform="matrix(0.191861 0 0 0.191861 5342.86 2571.26)" clip-rule="evenodd"><g id="eC3XnA6OUjt36_ts" transform="translate(2508.140137,3923.5) scale(0,0)"><circle id="eC3XnA6OUjt36" r="145.5" transform="translate(-0.000137,0)" clip-rule="evenodd" fill="rgb(255,149,140)" fill-rule="evenodd" stroke="none" stroke-width="1" stroke-linejoin="round" stroke-miterlimit="1.41421"/></g></g><g id="eC3XnA6OUjt37" transform="matrix(0.304585 0 0 0.304585 5041.32 1912.29)" clip-rule="evenodd"><g id="eC3XnA6OUjt38_ts" transform="translate(2508.140137,3923.5) scale(0,0)"><circle id="eC3XnA6OUjt38" r="145.5" transform="translate(-0.000137,0)" clip-rule="evenodd" fill="rgb(180,209,86)" fill-rule="evenodd" stroke="none" stroke-width="1" stroke-linejoin="round" stroke-miterlimit="1.41421"/></g></g><g id="eC3XnA6OUjt39" transform="matrix(0.304585 0 0 0.304585 4694.81 1458.26)" clip-rule="evenodd"><g id="eC3XnA6OUjt40_ts" transform="translate(2508.140137,3923.5) scale(0,0)"><circle id="eC3XnA6OUjt40" r="145.5" transform="translate(-0.000137,0)" clip-rule="evenodd" fill="rgb(255,149,140)" fill-rule="evenodd" stroke="none" stroke-width="1" stroke-linejoin="round" stroke-miterlimit="1.41421"/></g></g><g id="eC3XnA6OUjt41" transform="matrix(0.357497 0 0 0.357497 4131.99 1524.05)" clip-rule="evenodd"><g id="eC3XnA6OUjt42_ts" transform="translate(2508.140137,3923.5) scale(0,0)"><circle id="eC3XnA6OUjt42" r="145.5" transform="translate(-0.000137,0)" clip-rule="evenodd" fill="rgb(249,180,115)" fill-rule="evenodd" stroke="none" stroke-width="1" stroke-linejoin="round" stroke-miterlimit="1.41421"/></g></g></g></g></svg>