<svg id="eJGrnDZ3S4W1" xmlns="http://www.w3.org/2000/svg" xmlns:xlink="http://www.w3.org/1999/xlink" viewBox="0 0 2400 761" shape-rendering="geometricPrecision" text-rendering="geometricPrecision"><style><![CDATA[#eJGrnDZ3S4W7_ts {animation: eJGrnDZ3S4W7_ts__ts 60000ms linear infinite normal forwards}@keyframes eJGrnDZ3S4W7_ts__ts { 0% {transform: translate(2508.140137px,3923.5px) scale(1,1)} 13.333333% {transform: translate(2508.140137px,3923.5px) scale(1,1)} 16.666667% {transform: translate(2508.140137px,3923.5px) scale(0,0)} 26.666667% {transform: translate(2508.140137px,3923.5px) scale(0,0)} 30% {transform: translate(2508.140137px,3923.5px) scale(1,1)} 100% {transform: translate(2508.140137px,3923.5px) scale(1,1)}} #eJGrnDZ3S4W24_ts {animation: eJGrnDZ3S4W24_ts__ts 60000ms linear infinite normal forwards}@keyframes eJGrnDZ3S4W24_ts__ts { 0% {transform: translate(2508.140137px,3923.5px) scale(1,1)} 37.333333% {transform: translate(2508.140137px,3923.5px) scale(1,1)} 40.666667% {transform: translate(2508.140137px,3923.5px) scale(0,0)} 60% {transform: translate(2508.140137px,3923.5px) scale(0,0)} 63.333333% {transform: translate(2508.140137px,3923.5px) scale(1,1)} 100% {transform: translate(2508.140137px,3923.5px) scale(1,1)}} #eJGrnDZ3S4W26_ts {animation: eJGrnDZ3S4W26_ts__ts 60000ms linear infinite normal forwards}@keyframes eJGrnDZ3S4W26_ts__ts { 0% {transform: translate(2508.140137px,3923.5px) scale(1,1)} 8% {transform: translate(2508.140137px,3923.5px) scale(1,1)} 11.333333% {transform: translate(2508.140137px,3923.5px) scale(0,0)} 18.666667% {transform: translate(2508.140137px,3923.5px) scale(0,0)} 22% {transform: translate(2508.140137px,3923.5px) scale(1,1)} 100% {transform: translate(2508.140137px,3923.5px) scale(1,1)}} #eJGrnDZ3S4W28_ts {animation: eJGrnDZ3S4W28_ts__ts 60000ms linear infinite normal forwards}@keyframes eJGrnDZ3S4W28_ts__ts { 0% {transform: translate(2508.140137px,3923.5px) scale(1,1)} 28.666667% {transform: translate(2508.140137px,3923.5px) scale(1,1)} 32% {transform: translate(2508.140137px,3923.5px) scale(0,0)} 46.666667% {transform: translate(2508.140137px,3923.5px) scale(0,0)} 50% {transform: translate(2508.140137px,3923.5px) scale(1,1)} 100% {transform: translate(2508.140137px,3923.5px) scale(1,1)}} #eJGrnDZ3S4W30_ts {animation: eJGrnDZ3S4W30_ts__ts 60000ms linear infinite normal forwards}@keyframes eJGrnDZ3S4W30_ts__ts { 0% {transform: translate(2508.140137px,3923.5px) scale(1,1)} 39% {transform: translate(2508.140137px,3923.5px) scale(1,1)} 42.333333% {transform: translate(2508.140137px,3923.5px) scale(0,0)} 80.666667% {transform: translate(2508.140137px,3923.5px) scale(0,0)} 84% {transform: translate(2508.140137px,3923.5px) scale(1,1)} 100% {transform: translate(2508.140137px,3923.5px) scale(1,1)}} #eJGrnDZ3S4W34_ts {animation: eJGrnDZ3S4W34_ts__ts 60000ms linear infinite normal forwards}@keyframes eJGrnDZ3S4W34_ts__ts { 0% {transform: translate(2508.140137px,3923.5px) scale(1,1)} 14.333333% {transform: translate(2508.140137px,3923.5px) scale(1,1)} 17.666667% {transform: translate(2508.140137px,3923.5px) scale(0,0)} 29.333333% {transform: translate(2508.140137px,3923.5px) scale(0,0)} 32.666667% {transform: translate(2508.140137px,3923.5px) scale(1,1)} 100% {transform: translate(2508.140137px,3923.5px) scale(1,1)}} #eJGrnDZ3S4W36_ts {animation: eJGrnDZ3S4W36_ts__ts 60000ms linear infinite normal forwards}@keyframes eJGrnDZ3S4W36_ts__ts { 0% {transform: translate(2508.140137px,3923.5px) scale(1,1)} 39.666667% {transform: translate(2508.140137px,3923.5px) scale(1,1)} 43% {transform: translate(2508.140137px,3923.5px) scale(0,0)} 71.666667% {transform: translate(2508.140137px,3923.5px) scale(0,0)} 75% {transform: translate(2508.140137px,3923.5px) scale(1,1)} 100% {transform: translate(2508.140137px,3923.5px) scale(1,1)}} #eJGrnDZ3S4W38_ts {animation: eJGrnDZ3S4W38_ts__ts 60000ms linear infinite normal forwards}@keyframes eJGrnDZ3S4W38_ts__ts { 0% {transform: translate(2508.140137px,3923.5px) scale(1,1)} 27% {transform: translate(2508.140137px,3923.5px) scale(1,1)} 30.333333% {transform: translate(2508.140137px,3923.5px) scale(0,0)} 67.333333% {transform: translate(2508.140137px,3923.5px) scale(0,0)} 70.666667% {transform: translate(2508.140137px,3923.5px) scale(1,1)} 100% {transform: translate(2508.140137px,3923.5px) scale(1,1)}} #eJGrnDZ3S4W40_ts {animation: eJGrnDZ3S4W40_ts__ts 60000ms linear infinite normal forwards}@keyframes eJGrnDZ3S4W40_ts__ts { 0% {transform: translate(2508.140137px,3923.5px) scale(1,1)} 72.666667% {transform: translate(2508.140137px,3923.5px) scale(1,1)} 76% {transform: translate(2508.140137px,3923.5px) scale(0,0)} 89.333333% {transform: translate(2508.140137px,3923.5px) scale(0,0)} 92.666667% {transform: translate(2508.140137px,3923.5px) scale(1,1)} 100% {transform: translate(2508.140137px,3923.5px) scale(1,1)}} #eJGrnDZ3S4W42_ts {animation: eJGrnDZ3S4W42_ts__ts 60000ms linear infinite normal forwards}@keyframes eJGrnDZ3S4W42_ts__ts { 0% {transform: translate(2508.140137px,3923.5px) scale(1,1)} 23.333333% {transform: translate(2508.140137px,3923.5px) scale(1,1)} 26.666667% {transform: translate(2508.140137px,3923.5px) scale(0,0)} 49.666667% {transform: translate(2508.140137px,3923.5px) scale(0,0)} 53% {transform: translate(2508.140137px,3923.5px) scale(1,1)} 100% {transform: translate(2508.140137px,3923.5px) scale(1,1)}}]]></style><g transform="translate(-3507.87-3613.08)" clip-rule="evenodd"><g transform="translate(0 1022)" clip-rule="evenodd"><g transform="matrix(.472215 0 0 0.472215 4118.88 874.035)" clip-rule="evenodd"><circle r="145.5" transform="translate(2508.14 3923.5)" clip-rule="evenodd" fill="#bbd1b2" fill-rule="evenodd" stroke-linejoin="round" stroke-miterlimit="1.41421"/></g><g transform="matrix(.375901 0 0 0.375901 3291.67 1275.96)" clip-rule="evenodd"><g id="eJGrnDZ3S4W7_ts" transform="translate(2508.140137,3923.5) scale(1,1)"><circle r="145.5" transform="translate(-0.000137,0)" clip-rule="evenodd" fill="#bbd1b2" fill-rule="evenodd" stroke-linejoin="round" stroke-miterlimit="1.41421"/></g></g><g transform="matrix(1.57243 0 0 1.57243-3153.89-3267.39)" clip-rule="evenodd"><g clip-rule="evenodd"><path d="M4236.61,3737.66l62.3-.19v276.95l-62.3.78v-277.54Z" clip-rule="evenodd" fill="#a4a4a4" stroke-linejoin="round" stroke-miterlimit="1.41421"/><path d="M4378.21,3888.44c4.82-7.68,11.26-13.8,19.33-18.36c8.08-4.42,16.6-6.64,25.59-6.64c9.24,0,17.84,2.22,25.78,6.64c8.07,4.56,14.52,10.68,19.34,18.36c4.81,7.69,7.22,16.09,7.22,25.2c0,13.8-5.21,25.72-15.62,35.74-10.29,9.9-22.53,14.84-36.72,14.84-14.06,0-26.24-4.94-36.52-14.84-10.42-10.02-15.63-21.94-15.63-35.74c0-9.11,2.41-17.51,7.23-25.2Zm97.46,126.37l61.91.59.2-101.76c0-15.23-3.06-29.43-9.18-42.58-5.99-12.76-14.46-24.09-25.39-33.98-10.42-9.64-22.66-17.06-36.72-22.27s-28.52-7.81-43.36-7.81c-14.98,0-29.43,2.67-43.36,8.01-13.93,5.07-26.17,12.43-36.72,22.07-10.68,9.63-19.07,20.96-25.19,33.98-6.12,13.15-9.18,27.35-9.18,42.58c0,20.18,5.27,38.48,15.82,54.88c10.41,16.15,24.48,28.91,42.18,38.28c17.71,9.25,36.53,13.87,56.45,13.87c15.1,0,29.56-2.67,43.36-8.01c1.95-.65,5.01-1.88,9.18-3.71v5.86Z" clip-rule="evenodd" fill="#a4a4a4" stroke-linejoin="round" stroke-miterlimit="1.41421"/><path d="M4637.39,3863.44c15.88.66,23.83,11.72,23.83,33.21v118.16h62.5v-118.16c0-56.9-28.78-86.79-86.33-89.65h-3.52c-57.55,2.86-86.33,32.75-86.33,89.65v118.16h62.5v-118.16c0-21.49,7.95-32.55,23.83-33.21h3.52Z" clip-rule="evenodd" fill="#a4a4a4" stroke-linejoin="round" stroke-miterlimit="1.41421"/><path d="M4900.28,3913.83c0-9.11-2.41-17.44-7.23-25-4.82-7.68-11.26-13.8-19.33-18.36-7.95-4.55-16.48-6.83-25.59-6.83-9.12,0-17.71,2.28-25.78,6.83-8.07,4.56-14.52,10.68-19.34,18.36-4.82,7.56-7.23,15.89-7.23,25c0,13.94,5.21,25.92,15.63,35.94c10.29,10.03,22.53,15.04,36.72,15.04c14.06,0,26.24-5.01,36.52-15.04c10.42-10.02,15.63-22,15.63-35.94Zm62.3,1.37c-.13,19.79-5.4,37.7-15.82,53.71-10.41,16.28-24.48,29.04-42.19,38.28-17.7,9.38-36.52,14.07-56.44,14.07-15.24,0-29.69-2.67-43.36-8.01-13.54-4.95-25.85-12.44-36.91-22.46-10.94-10.03-19.41-21.49-25.39-34.38-5.99-12.89-8.99-27.08-8.99-42.58c0-15.1,3.06-29.23,9.18-42.38c5.99-13.02,14.39-24.41,25.2-34.18c10.93-9.89,23.24-17.38,36.91-22.46c14.06-5.08,28.51-7.62,43.36-7.62c14.71,0,29.1,2.54,43.16,7.62l8.99,3.91v-82.42l62.3.19v178.71Z" clip-rule="evenodd" fill="#a4a4a4" stroke-linejoin="round" stroke-miterlimit="1.41421"/></g><g transform="translate(23.045 0)" clip-rule="evenodd"><path d="M4972.35,3737.66l62.3-.19v276.95l-62.3.78v-277.54Z" clip-rule="evenodd" fill="#a4a4a4" stroke-linejoin="round" stroke-miterlimit="1.41421"/><path d="M5109.07,3815.01v200.19h-62.31v-200l62.31-.19Zm.19-56.64c0,6.25-1.43,11.78-4.29,16.6-2.87,4.81-6.78,8.72-11.72,11.72-4.95,2.99-10.42,4.49-16.41,4.49s-11.39-1.43-16.21-4.3c-4.95-2.99-8.85-6.97-11.72-11.91-3-5.21-4.49-10.75-4.49-16.6c0-5.99,1.43-11.46,4.3-16.41c3.12-5.08,7.09-9.05,11.91-11.91c4.82-2.87,10.22-4.3,16.21-4.3s11.46,1.43,16.41,4.3c4.81,2.86,8.72,6.83,11.72,11.91c2.86,4.95,4.29,10.42,4.29,16.41Z" clip-rule="evenodd" fill="#a4a4a4" stroke-linejoin="round" stroke-miterlimit="1.41421"/><path d="M5295.98,3891.96v123.05h-62.7v-123.05c-1.04-18.36-8.91-27.8-23.63-28.32h-3.51c-15.89.52-23.83,11.52-23.83,33.01v118.36h-62.5v-118.36c0-56.64,28.78-86.53,86.33-89.65h3.51c22.92,1.3,41.28,6.77,55.08,16.41c13.67-9.64,31.97-15.11,54.88-16.41h3.52c57.55,3.12,86.33,33.01,86.33,89.65v118.36h-62.5v-118.36c0-21.49-7.95-32.49-23.83-33.01h-3.52c-14.71.52-22.59,9.96-23.63,28.32Z" clip-rule="evenodd" fill="#a4a4a4" stroke-linejoin="round" stroke-miterlimit="1.41421"/><path d="M5533.87,4021.26c-19.92,0-38.74-4.69-56.44-14.07-17.71-9.37-31.78-22.2-42.19-38.47-10.55-16.41-15.82-34.77-15.82-55.08c0-15.23,3.06-29.43,9.18-42.58s14.52-24.54,25.19-34.18c10.81-9.76,23.11-17.25,36.92-22.46c14.06-5.21,28.45-7.81,43.16-7.81c14.85,0,29.3,2.6,43.36,7.81c13.67,4.95,25.98,12.37,36.91,22.27c10.81,9.89,19.21,21.35,25.2,34.37c6.12,13.15,9.18,27.35,9.18,42.58c0,15.49-2.99,29.69-8.99,42.58-5.98,13.02-14.45,24.54-25.39,34.57-11.06,9.89-23.37,17.38-36.91,22.46-13.67,5.34-28.12,8.01-43.36,8.01Zm-52.15-107.62c0,13.93,5.21,25.91,15.63,35.94c10.28,10.02,22.46,15.04,36.52,15.04c14.19,0,26.43-5.02,36.72-15.04c10.42-10.03,15.63-22.01,15.63-35.94c0-9.11-2.41-17.51-7.23-25.2-4.82-7.68-11.26-13.8-19.34-18.36-7.94-4.55-16.53-6.83-25.78-6.83-8.98,0-17.51,2.28-25.59,6.83-8.07,4.56-14.51,10.68-19.33,18.36-4.82,7.69-7.23,16.09-7.23,25.2Z" clip-rule="evenodd" fill="#a4a4a4" stroke-linejoin="round" stroke-miterlimit="1.41421"/></g></g><g transform="matrix(.628955 0 0 0.628955 4006.61 419.286)" clip-rule="evenodd"><circle r="145.5" transform="translate(2508.14 3923.5)" clip-rule="evenodd" fill="#e5ad5a" fill-rule="evenodd" stroke-linejoin="round" stroke-miterlimit="1.41421"/></g><g transform="matrix(.663033 0 0 0.663033 2806.32 280.821)" clip-rule="evenodd"><circle r="145.5" transform="translate(2508.14 3923.5)" clip-rule="evenodd" fill="#b4d156" fill-rule="evenodd" stroke-linejoin="round" stroke-miterlimit="1.41421"/></g><g transform="matrix(.27928 0 0 0.27928 4984.62 2055.9)" clip-rule="evenodd"><g id="eJGrnDZ3S4W24_ts" transform="translate(2508.140137,3923.5) scale(1,1)"><circle r="145.5" transform="translate(-0.000137,0)" clip-rule="evenodd" fill="#ff958c" fill-rule="evenodd" stroke-linejoin="round" stroke-miterlimit="1.41421"/></g></g><g transform="matrix(.27928 0 0 0.27928 3282.69 1600.35)" clip-rule="evenodd"><g id="eJGrnDZ3S4W26_ts" transform="translate(2508.140137,3923.5) scale(1,1)"><circle r="145.5" transform="translate(-0.000137,0)" clip-rule="evenodd" fill="#e5ad5a" fill-rule="evenodd" stroke-linejoin="round" stroke-miterlimit="1.41421"/></g></g><g transform="matrix(.191861 0 0 0.191861 5307.65 2467.43)" clip-rule="evenodd"><g id="eJGrnDZ3S4W28_ts" transform="translate(2508.140137,3923.5) scale(1,1)"><circle r="145.5" transform="translate(-0.000137,0)" clip-rule="evenodd" fill="#f9b473" fill-rule="evenodd" stroke-linejoin="round" stroke-miterlimit="1.41421"/></g></g><g transform="matrix(.287792 0 0 0.287792 3927.6 1839.45)" clip-rule="evenodd"><g id="eJGrnDZ3S4W30_ts" transform="translate(2508.140137,3923.5) scale(1,1)"><circle r="145.5" transform="translate(-0.000137,0)" clip-rule="evenodd" fill="#ee97aa" fill-rule="evenodd" stroke-linejoin="round" stroke-miterlimit="1.41421"/></g></g><g transform="matrix(.662731 0 0 0.662731 2139.1 286.61)" clip-rule="evenodd"><circle r="145.5" transform="translate(2508.14 3923.5)" clip-rule="evenodd" fill="#ff958c" fill-rule="evenodd" stroke-linejoin="round" stroke-miterlimit="1.41421"/></g><g transform="matrix(.191861 0 0 0.191861 5398.69 2495.35)" clip-rule="evenodd"><g id="eJGrnDZ3S4W34_ts" transform="translate(2508.140137,3923.5) scale(1,1)"><circle r="145.5" transform="translate(-0.000137,0)" clip-rule="evenodd" fill="#bbd1b2" fill-rule="evenodd" stroke-linejoin="round" stroke-miterlimit="1.41421"/></g></g><g transform="matrix(.191861 0 0 0.191861 5342.86 2571.26)" clip-rule="evenodd"><g id="eJGrnDZ3S4W36_ts" transform="translate(2508.140137,3923.5) scale(1,1)"><circle r="145.5" transform="translate(-0.000137,0)" clip-rule="evenodd" fill="#ff958c" fill-rule="evenodd" stroke-linejoin="round" stroke-miterlimit="1.41421"/></g></g><g transform="matrix(.304585 0 0 0.304585 5041.32 1912.29)" clip-rule="evenodd"><g id="eJGrnDZ3S4W38_ts" transform="translate(2508.140137,3923.5) scale(1,1)"><circle r="145.5" transform="translate(-0.000137,0)" clip-rule="evenodd" fill="#b4d156" fill-rule="evenodd" stroke-linejoin="round" stroke-miterlimit="1.41421"/></g></g><g transform="matrix(.304585 0 0 0.304585 4694.81 1458.26)" clip-rule="evenodd"><g id="eJGrnDZ3S4W40_ts" transform="translate(2508.140137,3923.5) scale(1,1)"><circle r="145.5" transform="translate(-0.000137,0)" clip-rule="evenodd" fill="#ff958c" fill-rule="evenodd" stroke-linejoin="round" stroke-miterlimit="1.41421"/></g></g><g transform="matrix(.357497 0 0 0.357497 4131.99 1524.05)" clip-rule="evenodd"><g id="eJGrnDZ3S4W42_ts" transform="translate(2508.140137,3923.5) scale(1,1)"><circle r="145.5" transform="translate(-0.000137,0)" clip-rule="evenodd" fill="#f9b473" fill-rule="evenodd" stroke-linejoin="round" stroke-miterlimit="1.41421"/></g></g></g></g></svg>