{
    "asset" : {
        "generator" : "Khronos glTF Blender I/O v1.3.48",
        "version" : "2.0"
    },
    "scene" : 0,
    "scenes" : [
        {
            "name" : "Scene",
            "nodes" : [
                0,
                1,
                2
            ]
        }
    ],
    "nodes" : [
        {
            "mesh" : 0,
            "name" : "Icosphere",
            "rotation" : [
                0.5,
                0.5,
                -0.5,
                0.4999999701976776
            ],
            "translation" : [
                -0.6584471464157104,
                2.4545116424560547,
                1.5712460279464722
            ]
        },
        {
            "mesh" : 1,
            "name" : "Plane.001",
            "rotation" : [
                0,
                0,
                -0.7071067690849304,
                0.7071068286895752
            ],
            "scale" : [
                0.0888712927699089,
                0.0888712927699089,
                0.0888712927699089
            ],
            "translation" : [
                0.33475571870803833,
                2.452575445175171,
                1.5680515766143799
            ]
        },
        {
            "mesh" : 2,
            "name" : "Icosphere.001",
            "rotation" : [
                0,
                0,
                -0.7071067690849304,
                0.7071068286895752
            ],
            "scale" : [
                0.03361041471362114,
                0.03361041471362114,
                0.03361041471362114
            ],
            "translation" : [
                0.3286427855491638,
                2.4514963626861572,
                1.5680515766143799
            ]
        }
    ],
    "materials" : [
        {
            "doubleSided" : true,
            "emissiveFactor" : [
                0,
                0,
                0
            ],
            "name" : "Orange",
            "pbrMetallicRoughness" : {
                "baseColorFactor" : [
                    0.8000000715255737,
                    0.2537384629249573,
                    0,
                    1
                ],
                "metallicFactor" : 0,
                "roughnessFactor" : 1
            }
        },
        {
            "doubleSided" : true,
            "emissiveFactor" : [
                0,
                0,
                0
            ],
            "name" : "Orange3",
            "pbrMetallicRoughness" : {
                "baseColorFactor" : [
                    0.8000000715255737,
                    0.23988962173461914,
                    0,
                    1
                ],
                "metallicFactor" : 0,
                "roughnessFactor" : 0
            }
        },
        {
            "doubleSided" : true,
            "emissiveFactor" : [
                0,
                0,
                0
            ],
            "name" : "Orange2",
            "pbrMetallicRoughness" : {
                "baseColorFactor" : [
                    0.800000011920929,
                    0.800000011920929,
                    0.800000011920929,
                    1
                ],
                "metallicFactor" : 0,
                "roughnessFactor" : 0.5
            }
        },
        {
            "doubleSided" : true,
            "emissiveFactor" : [
                0,
                0,
                0
            ],
            "name" : "Orange Stem",
            "pbrMetallicRoughness" : {
                "baseColorFactor" : [
                    0.006108252331614494,
                    0.289350688457489,
                    0.024802032858133316,
                    1
                ],
                "metallicFactor" : 0,
                "roughnessFactor" : 0.5
            }
        }
    ],
    "meshes" : [
        {
            "name" : "Icosphere.001",
            "primitives" : [
                {
                    "attributes" : {
                        "POSITION" : 0,
                        "NORMAL" : 1,
                        "TEXCOORD_0" : 2
                    },
                    "indices" : 3,
                    "material" : 0
                },
                {
                    "attributes" : {
                        "POSITION" : 4,
                        "NORMAL" : 5,
                        "TEXCOORD_0" : 6
                    },
                    "indices" : 7,
                    "material" : 1
                },
                {
                    "attributes" : {
                        "POSITION" : 8,
                        "NORMAL" : 9,
                        "TEXCOORD_0" : 10
                    },
                    "indices" : 11,
                    "material" : 2
                }
            ]
        },
        {
            "name" : "Plane.001",
            "primitives" : [
                {
                    "attributes" : {
                        "POSITION" : 12,
                        "NORMAL" : 13,
                        "TEXCOORD_0" : 14
                    },
                    "indices" : 15,
                    "material" : 3
                }
            ]
        },
        {
            "name" : "Icosphere",
            "primitives" : [
                {
                    "attributes" : {
                        "POSITION" : 16,
                        "NORMAL" : 17,
                        "TEXCOORD_0" : 18
                    },
                    "indices" : 19
                }
            ]
        }
    ],
    "accessors" : [
        {
            "bufferView" : 0,
            "componentType" : 5126,
            "count" : 67,
            "max" : [
                0.9510578513145447,
                1,
                0.9999999403953552
            ],
            "min" : [
                -0.9510578513145447,
                0,
                -0.9999999403953552
            ],
            "type" : "VEC3"
        },
        {
            "bufferView" : 1,
            "componentType" : 5126,
            "count" : 67,
            "type" : "VEC3"
        },
        {
            "bufferView" : 2,
            "componentType" : 5126,
            "count" : 67,
            "type" : "VEC2"
        },
        {
            "bufferView" : 3,
            "componentType" : 5123,
            "count" : 150,
            "type" : "SCALAR"
        },
        {
            "bufferView" : 4,
            "componentType" : 5126,
            "count" : 40,
            "max" : [
                0.858513593673706,
                0,
                0.8999430537223816
            ],
            "min" : [
                -0.858513593673706,
                0,
                -0.8999430537223816
            ],
            "type" : "VEC3"
        },
        {
            "bufferView" : 5,
            "componentType" : 5126,
            "count" : 40,
            "type" : "VEC3"
        },
        {
            "bufferView" : 6,
            "componentType" : 5126,
            "count" : 40,
            "type" : "VEC2"
        },
        {
            "bufferView" : 7,
            "componentType" : 5123,
            "count" : 60,
            "type" : "SCALAR"
        },
        {
            "bufferView" : 8,
            "componentType" : 5126,
            "count" : 80,
            "max" : [
                0.9510578513145447,
                0,
                0.9999999403953552
            ],
            "min" : [
                -0.9510578513145447,
                0,
                -0.9999999403953552
            ],
            "type" : "VEC3"
        },
        {
            "bufferView" : 9,
            "componentType" : 5126,
            "count" : 80,
            "type" : "VEC3"
        },
        {
            "bufferView" : 10,
            "componentType" : 5126,
            "count" : 80,
            "type" : "VEC2"
        },
        {
            "bufferView" : 11,
            "componentType" : 5123,
            "count" : 234,
            "type" : "SCALAR"
        },
        {
            "bufferView" : 12,
            "componentType" : 5126,
            "count" : 16,
            "max" : [
                1,
                3.827761361208104e-07,
                1
            ],
            "min" : [
                -1,
                -8.732458240956475e-07,
                -1
            ],
            "type" : "VEC3"
        },
        {
            "bufferView" : 13,
            "componentType" : 5126,
            "count" : 16,
            "type" : "VEC3"
        },
        {
            "bufferView" : 14,
            "componentType" : 5126,
            "count" : 16,
            "type" : "VEC2"
        },
        {
            "bufferView" : 15,
            "componentType" : 5123,
            "count" : 24,
            "type" : "SCALAR"
        },
        {
            "bufferView" : 16,
            "componentType" : 5126,
            "count" : 63,
            "max" : [
                0.9510578513145447,
                1,
                0.9999999403953552
            ],
            "min" : [
                -0.9510578513145447,
                -1,
                -0.9999999403953552
            ],
            "type" : "VEC3"
        },
        {
            "bufferView" : 17,
            "componentType" : 5126,
            "count" : 63,
            "type" : "VEC3"
        },
        {
            "bufferView" : 18,
            "componentType" : 5126,
            "count" : 63,
            "type" : "VEC2"
        },
        {
            "bufferView" : 19,
            "componentType" : 5123,
            "count" : 240,
            "type" : "SCALAR"
        }
    ],
    "bufferViews" : [
        {
            "buffer" : 0,
            "byteLength" : 804,
            "byteOffset" : 0
        },
        {
            "buffer" : 0,
            "byteLength" : 804,
            "byteOffset" : 804
        },
        {
            "buffer" : 0,
            "byteLength" : 536,
            "byteOffset" : 1608
        },
        {
            "buffer" : 0,
            "byteLength" : 300,
            "byteOffset" : 2144
        },
        {
            "buffer" : 0,
            "byteLength" : 480,
            "byteOffset" : 2444
        },
        {
            "buffer" : 0,
            "byteLength" : 480,
            "byteOffset" : 2924
        },
        {
            "buffer" : 0,
            "byteLength" : 320,
            "byteOffset" : 3404
        },
        {
            "buffer" : 0,
            "byteLength" : 120,
            "byteOffset" : 3724
        },
        {
            "buffer" : 0,
            "byteLength" : 960,
            "byteOffset" : 3844
        },
        {
            "buffer" : 0,
            "byteLength" : 960,
            "byteOffset" : 4804
        },
        {
            "buffer" : 0,
            "byteLength" : 640,
            "byteOffset" : 5764
        },
        {
            "buffer" : 0,
            "byteLength" : 468,
            "byteOffset" : 6404
        },
        {
            "buffer" : 0,
            "byteLength" : 192,
            "byteOffset" : 6872
        },
        {
            "buffer" : 0,
            "byteLength" : 192,
            "byteOffset" : 7064
        },
        {
            "buffer" : 0,
            "byteLength" : 128,
            "byteOffset" : 7256
        },
        {
            "buffer" : 0,
            "byteLength" : 48,
            "byteOffset" : 7384
        },
        {
            "buffer" : 0,
            "byteLength" : 756,
            "byteOffset" : 7432
        },
        {
            "buffer" : 0,
            "byteLength" : 756,
            "byteOffset" : 8188
        },
        {
            "buffer" : 0,
            "byteLength" : 504,
            "byteOffset" : 8944
        },
        {
            "buffer" : 0,
            "byteLength" : 480,
            "byteOffset" : 9448
        }
    ],
    "buffers" : [
        {
            "byteLength" : 9928,
            "uri" : "data:application/octet-stream;base64,"
        }
    ]
}
