{
    "asset" : {
        "generator" : "Khronos glTF Blender I/O v1.3.48",
        "version" : "2.0"
    },
    "scene" : 0,
    "scenes" : [
        {
            "name" : "Scene",
            "nodes" : [
                0,
                1,
                2,
                3
            ]
        }
    ],
    "nodes" : [
        {
            "mesh" : 0,
            "name" : "Sphere",
            "translation" : [
                -2.367018938064575,
                1,
                0
            ]
        },
        {
            "mesh" : 1,
            "name" : "Cylinder",
            "rotation" : [
                0,
                0.010588153265416622,
                0.046604204922914505,
                0.998857319355011
            ],
            "scale" : [
                -0.049676619470119476,
                -0.2710847556591034,
                -0.0498020201921463
            ],
            "translation" : [
                -2.4806668758392334,
                1.8762705326080322,
                0.05398538336157799
            ]
        },
        {
            "mesh" : 2,
            "name" : "Cylinder.001",
            "rotation" : [
                0,
                0,
                -0.5248606204986572,
                0.8511881828308105
            ],
            "scale" : [
                0.022753385826945305,
                -0.1029941514134407,
                0.015454611741006374
            ],
            "translation" : [
                -2.3376848697662354,
                1.9714280366897583,
                0.07320492714643478
            ]
        },
        {
            "mesh" : 3,
            "name" : "Plane",
            "rotation" : [
                0.9724043607711792,
                0.2279384732246399,
                0.004972646478563547,
                0.049490246921777725
            ],
            "scale" : [
                0.3891967535018921,
                0.27715107798576355,
                0.2771509885787964
            ],
            "translation" : [
                -1.9463740587234497,
                2.161155939102173,
                0.06945803761482239
            ]
        }
    ],
    "materials" : [
        {
            "doubleSided" : true,
            "emissiveFactor" : [
                0,
                0,
                0
            ],
            "name" : "Apple",
            "pbrMetallicRoughness" : {
                "baseColorFactor" : [
                    0.3185468316078186,
                    0.5394796133041382,
                    0.05126950144767761,
                    1
                ],
                "metallicFactor" : 0,
                "roughnessFactor" : 0.5
            }
        },
        {
            "doubleSided" : true,
            "emissiveFactor" : [
                0,
                0,
                0
            ],
            "name" : "Stem Pear",
            "pbrMetallicRoughness" : {
                "baseColorFactor" : [
                    0.22323042154312134,
                    0.10218045860528946,
                    0.007548452354967594,
                    1
                ],
                "metallicFactor" : 0,
                "roughnessFactor" : 0.5
            }
        },
        {
            "doubleSided" : true,
            "emissiveFactor" : [
                0,
                0,
                0
            ],
            "name" : "Leave",
            "pbrMetallicRoughness" : {
                "baseColorFactor" : [
                    0,
                    0.22902488708496094,
                    0.03286948427557945,
                    1
                ],
                "metallicFactor" : 0,
                "roughnessFactor" : 0.5
            }
        },
        {
            "doubleSided" : true,
            "emissiveFactor" : [
                0,
                0,
                0
            ],
            "name" : "Leave2",
            "pbrMetallicRoughness" : {
                "baseColorFactor" : [
                    0.14341536164283752,
                    0.8000000715255737,
                    0.05171985924243927,
                    1
                ],
                "metallicFactor" : 0,
                "roughnessFactor" : 0.5
            }
        }
    ],
    "meshes" : [
        {
            "name" : "Sphere",
            "primitives" : [
                {
                    "attributes" : {
                        "POSITION" : 0,
                        "NORMAL" : 1,
                        "TEXCOORD_0" : 2
                    },
                    "indices" : 3,
                    "material" : 0
                }
            ]
        },
        {
            "name" : "Cylinder.001",
            "primitives" : [
                {
                    "attributes" : {
                        "POSITION" : 4,
                        "NORMAL" : 5,
                        "TEXCOORD_0" : 6
                    },
                    "indices" : 7,
                    "material" : 1
                }
            ]
        },
        {
            "name" : "Cylinder.002",
            "primitives" : [
                {
                    "attributes" : {
                        "POSITION" : 8,
                        "NORMAL" : 9,
                        "TEXCOORD_0" : 10
                    },
                    "indices" : 11,
                    "material" : 1
                }
            ]
        },
        {
            "name" : "Plane",
            "primitives" : [
                {
                    "attributes" : {
                        "POSITION" : 12,
                        "NORMAL" : 13,
                        "TEXCOORD_0" : 14
                    },
                    "indices" : 15,
                    "material" : 2
                },
                {
                    "attributes" : {
                        "POSITION" : 16,
                        "NORMAL" : 17,
                        "TEXCOORD_0" : 18
                    },
                    "indices" : 19,
                    "material" : 3
                }
            ]
        }
    ],
    "accessors" : [
        {
            "bufferView" : 0,
            "componentType" : 5126,
            "count" : 559,
            "max" : [
                0.9630780220031738,
                0.9496387839317322,
                1.025816559791565
            ],
            "min" : [
                -1.0273922681808472,
                -0.9847919940948486,
                -0.9838739037513733
            ],
            "type" : "VEC3"
        },
        {
            "bufferView" : 1,
            "componentType" : 5126,
            "count" : 559,
            "type" : "VEC3"
        },
        {
            "bufferView" : 2,
            "componentType" : 5126,
            "count" : 559,
            "type" : "VEC2"
        },
        {
            "bufferView" : 3,
            "componentType" : 5123,
            "count" : 2880,
            "type" : "SCALAR"
        },
        {
            "bufferView" : 4,
            "componentType" : 5126,
            "count" : 240,
            "max" : [
                1.7990312576293945,
                1.0355825424194336,
                0.9981783628463745
            ],
            "min" : [
                -3.332832098007202,
                -1.010499119758606,
                -1.1679224967956543
            ],
            "type" : "VEC3"
        },
        {
            "bufferView" : 5,
            "componentType" : 5126,
            "count" : 240,
            "type" : "VEC3"
        },
        {
            "bufferView" : 6,
            "componentType" : 5126,
            "count" : 240,
            "type" : "VEC2"
        },
        {
            "bufferView" : 7,
            "componentType" : 5123,
            "count" : 372,
            "type" : "SCALAR"
        },
        {
            "bufferView" : 8,
            "componentType" : 5126,
            "count" : 48,
            "max" : [
                1,
                1,
                1
            ],
            "min" : [
                -1,
                -1,
                -1
            ],
            "type" : "VEC3"
        },
        {
            "bufferView" : 9,
            "componentType" : 5126,
            "count" : 48,
            "type" : "VEC3"
        },
        {
            "bufferView" : 10,
            "componentType" : 5126,
            "count" : 48,
            "type" : "VEC2"
        },
        {
            "bufferView" : 11,
            "componentType" : 5123,
            "count" : 84,
            "type" : "SCALAR"
        },
        {
            "bufferView" : 12,
            "componentType" : 5126,
            "count" : 55,
            "max" : [
                1.3599810600280762,
                0.08145856112241745,
                0.988763153553009
            ],
            "min" : [
                -1.001579761505127,
                -0.19489383697509766,
                -0.9556729793548584
            ],
            "type" : "VEC3"
        },
        {
            "bufferView" : 13,
            "componentType" : 5126,
            "count" : 55,
            "type" : "VEC3"
        },
        {
            "bufferView" : 14,
            "componentType" : 5126,
            "count" : 55,
            "type" : "VEC2"
        },
        {
            "bufferView" : 15,
            "componentType" : 5123,
            "count" : 96,
            "type" : "SCALAR"
        },
        {
            "bufferView" : 16,
            "componentType" : 5126,
            "count" : 67,
            "max" : [
                1.3599810600280762,
                0.08145856112241745,
                0.988763153553009
            ],
            "min" : [
                -1.000317931175232,
                -0.19489383697509766,
                -0.9556729793548584
            ],
            "type" : "VEC3"
        },
        {
            "bufferView" : 17,
            "componentType" : 5126,
            "count" : 67,
            "type" : "VEC3"
        },
        {
            "bufferView" : 18,
            "componentType" : 5126,
            "count" : 67,
            "type" : "VEC2"
        },
        {
            "bufferView" : 19,
            "componentType" : 5123,
            "count" : 150,
            "type" : "SCALAR"
        }
    ],
    "bufferViews" : [
        {
            "buffer" : 0,
            "byteLength" : 6708,
            "byteOffset" : 0
        },
        {
            "buffer" : 0,
            "byteLength" : 6708,
            "byteOffset" : 6708
        },
        {
            "buffer" : 0,
            "byteLength" : 4472,
            "byteOffset" : 13416
        },
        {
            "buffer" : 0,
            "byteLength" : 5760,
            "byteOffset" : 17888
        },
        {
            "buffer" : 0,
            "byteLength" : 2880,
            "byteOffset" : 23648
        },
        {
            "buffer" : 0,
            "byteLength" : 2880,
            "byteOffset" : 26528
        },
        {
            "buffer" : 0,
            "byteLength" : 1920,
            "byteOffset" : 29408
        },
        {
            "buffer" : 0,
            "byteLength" : 744,
            "byteOffset" : 31328
        },
        {
            "buffer" : 0,
            "byteLength" : 576,
            "byteOffset" : 32072
        },
        {
            "buffer" : 0,
            "byteLength" : 576,
            "byteOffset" : 32648
        },
        {
            "buffer" : 0,
            "byteLength" : 384,
            "byteOffset" : 33224
        },
        {
            "buffer" : 0,
            "byteLength" : 168,
            "byteOffset" : 33608
        },
        {
            "buffer" : 0,
            "byteLength" : 660,
            "byteOffset" : 33776
        },
        {
            "buffer" : 0,
            "byteLength" : 660,
            "byteOffset" : 34436
        },
        {
            "buffer" : 0,
            "byteLength" : 440,
            "byteOffset" : 35096
        },
        {
            "buffer" : 0,
            "byteLength" : 192,
            "byteOffset" : 35536
        },
        {
            "buffer" : 0,
            "byteLength" : 804,
            "byteOffset" : 35728
        },
        {
            "buffer" : 0,
            "byteLength" : 804,
            "byteOffset" : 36532
        },
        {
            "buffer" : 0,
            "byteLength" : 536,
            "byteOffset" : 37336
        },
        {
            "buffer" : 0,
            "byteLength" : 300,
            "byteOffset" : 37872
        }
    ],
    "buffers" : [
        {
            "byteLength" : 38172,
            "uri" : "data:application/octet-stream;base64,"
        }
    ]
}
